<svg xmlns="http://www.w3.org/2000/svg" xmlns:xlink="http://www.w3.org/1999/xlink" width="250" zoomAndPan="magnify" viewBox="0 0 187.5 187.499992" height="250" preserveAspectRatio="xMidYMid meet" version="1.0"><defs><clipPath id="890ee2596e"><path d="M 37.839844 61.613281 L 67 61.613281 L 67 95 L 37.839844 95 Z M 37.839844 61.613281 " clip-rule="nonzero"/></clipPath><clipPath id="72aac52a93"><path d="M 69 69 L 94 69 L 94 97.515625 L 69 97.515625 Z M 69 69 " clip-rule="nonzero"/></clipPath></defs><g clip-path="url(#890ee2596e)"><path fill="#ffffff" d="M 48.496094 79.863281 L 42.578125 85.914062 L 42.578125 94.40625 L 37.921875 94.40625 L 37.921875 61.613281 L 42.578125 61.613281 L 42.578125 79.960938 L 60.234375 61.613281 L 65.570312 61.613281 L 51.695312 76.351562 L 66.542969 94.40625 L 61.109375 94.40625 Z M 48.496094 79.863281 " fill-opacity="1" fill-rule="nonzero"/></g><path fill="#ffffff" d="M 100.5 91.773438 L 102.34375 88.257812 C 104.476562 89.722656 107.773438 90.796875 110.976562 90.796875 C 115.148438 90.796875 116.796875 89.527344 116.796875 87.378906 C 116.796875 81.816406 101.175781 86.597656 101.175781 76.742188 C 101.175781 72.25 105.15625 69.324219 111.460938 69.324219 C 114.664062 69.324219 118.351562 70.199219 120.484375 71.566406 L 118.542969 75.082031 C 116.3125 73.617188 113.886719 73.128906 111.460938 73.128906 C 107.582031 73.128906 105.640625 74.59375 105.640625 76.546875 C 105.640625 82.402344 121.261719 77.621094 121.261719 87.28125 C 121.261719 91.773438 117.1875 94.601562 110.589844 94.601562 C 106.609375 94.699219 102.535156 93.433594 100.5 91.773438 Z M 100.5 91.773438 " fill-opacity="1" fill-rule="nonzero"/><path fill="#ffffff" d="M 148.71875 79.375 L 148.71875 94.40625 L 144.449219 94.40625 L 144.449219 91.089844 C 142.992188 93.335938 140.179688 94.601562 136.300781 94.601562 C 130.671875 94.601562 127.179688 91.578125 127.179688 87.28125 C 127.179688 83.28125 129.703125 80.058594 137.074219 80.058594 L 144.15625 80.058594 L 144.15625 79.179688 C 144.15625 75.375 141.925781 73.226562 137.558594 73.226562 C 134.648438 73.226562 131.640625 74.300781 129.703125 75.863281 L 127.859375 72.445312 C 130.382812 70.394531 134.066406 69.226562 138.046875 69.226562 C 144.933594 69.324219 148.71875 72.640625 148.71875 79.375 Z M 144.253906 86.792969 L 144.253906 83.28125 L 137.367188 83.28125 C 132.902344 83.28125 131.640625 85.039062 131.640625 87.085938 C 131.640625 89.527344 133.679688 91.089844 137.074219 91.089844 C 140.472656 91.1875 143.1875 89.722656 144.253906 86.792969 Z M 144.253906 86.792969 " fill-opacity="1" fill-rule="nonzero"/><path fill="#ffffff" d="M 86.140625 87.867188 L 86.140625 94.503906 L 88.953125 92.847656 L 88.953125 86.207031 Z M 86.140625 87.867188 " fill-opacity="1" fill-rule="nonzero"/><g clip-path="url(#72aac52a93)"><path fill="#ffffff" d="M 93.902344 79.765625 L 82.355469 73.03125 L 75.953125 69.324219 L 69.644531 80.351562 L 69.742188 90.699219 L 81.191406 97.433594 L 82.355469 96.75 L 82.355469 86.988281 L 87.496094 77.910156 L 92.738281 80.9375 L 92.738281 90.699219 L 93.902344 90.015625 Z M 93.902344 79.765625 " fill-opacity="1" fill-rule="nonzero"/></g></svg>